<?xml version="1.0" encoding="UTF-8"?>
<svg xmlns="http://www.w3.org/2000/svg" xmlns:xlink="http://www.w3.org/1999/xlink" width="700px" height="697px" viewBox="0 0 699 697" version="1.1">
<g id="surface1">
<path style=" stroke:none;fill-rule:nonzero;fill:rgb(95.294118%,95.294118%,95.294118%);fill-opacity:1;" d="M 445.070312 195.550781 C 456.265625 195.453125 467.460938 195.378906 478.65625 195.335938 C 483.859375 195.3125 489.058594 195.28125 494.257812 195.234375 C 499.289062 195.1875 504.316406 195.164062 509.347656 195.152344 C 511.253906 195.144531 513.160156 195.132812 515.070312 195.109375 C 530.261719 194.933594 543.636719 196.402344 556.949219 204.195312 C 558.234375 204.933594 559.523438 205.671875 560.847656 206.4375 C 561.777344 206.992188 562.707031 207.550781 563.664062 208.121094 C 563.664062 209.042969 563.664062 209.964844 563.664062 210.914062 C 564.585938 210.914062 565.507812 210.914062 566.457031 210.914062 C 566.457031 211.835938 566.457031 212.757812 566.457031 213.710938 C 567.375 213.710938 568.296875 213.710938 569.246094 213.710938 C 570.945312 215.910156 570.945312 215.910156 572.734375 218.859375 C 573.324219 219.816406 573.914062 220.773438 574.519531 221.757812 C 582.203125 235.878906 581.757812 252.933594 577.617188 268.183594 C 575.167969 273.984375 572.371094 279.484375 569.246094 284.945312 C 568.324219 284.945312 567.402344 284.945312 566.457031 284.945312 C 566.457031 285.867188 566.457031 286.789062 566.457031 287.738281 C 565.535156 287.738281 564.613281 287.738281 563.664062 287.738281 C 563.664062 288.660156 563.664062 289.582031 563.664062 290.53125 C 562.742188 290.53125 561.824219 290.53125 560.875 290.53125 C 560.875 291.453125 560.875 292.375 560.875 293.328125 C 549.910156 301.863281 539.175781 301.039062 525.992188 300.3125 C 525.992188 299.390625 525.992188 298.46875 525.992188 297.515625 C 530.179688 294.722656 530.179688 294.722656 534.367188 294.722656 C 534.367188 293.800781 534.367188 292.878906 534.367188 291.929688 C 535.632812 290.949219 536.898438 289.972656 538.203125 288.960938 C 545.523438 283.007812 548.359375 275.464844 549.621094 266.242188 C 549.886719 263.515625 550.121094 260.789062 550.324219 258.058594 C 550.4375 256.636719 550.546875 255.210938 550.664062 253.746094 C 551.324219 243.492188 550.988281 234.46875 546.921875 224.882812 C 546.308594 223.4375 546.308594 223.4375 545.683594 221.964844 C 542.042969 214.6875 536.695312 209.988281 529.480469 206.375 C 519.878906 203.492188 509.246094 202.421875 499.484375 205.066406 C 496.273438 206.703125 496.273438 206.703125 493.902344 210.914062 C 493.453125 214.621094 493.453125 214.621094 493.480469 218.847656 C 493.457031 220.472656 493.433594 222.101562 493.410156 223.777344 C 493.398438 225.535156 493.386719 227.292969 493.375 229.105469 C 493.339844 231.867188 493.304688 234.628906 493.265625 237.386719 C 493.21875 241.257812 493.183594 245.128906 493.148438 249 C 493.082031 255.761719 493.007812 262.519531 492.921875 269.28125 C 492.875 272.878906 492.839844 276.480469 492.808594 280.078125 C 492.789062 281.714844 492.769531 283.351562 492.75 285.035156 C 492.730469 287.1875 492.730469 287.1875 492.710938 289.386719 C 492.507812 293.328125 492.507812 293.328125 491.113281 300.3125 C 482.828125 300.3125 474.539062 300.3125 466 300.3125 C 465.015625 287.605469 464.5 275.070312 464.617188 262.324219 C 464.625 260.96875 464.636719 259.613281 464.648438 258.21875 C 464.699219 252.597656 464.757812 246.984375 464.84375 241.367188 C 464.902344 237.207031 464.9375 233.046875 464.964844 228.886719 C 464.992188 227.628906 465.015625 226.367188 465.042969 225.066406 C 465.070312 217.941406 464.597656 212.796875 460.417969 206.726562 C 455.675781 204.753906 455.675781 204.753906 450.652344 203.933594 C 449.53125 203.644531 448.40625 203.355469 447.25 203.058594 C 446.53125 202.886719 445.8125 202.714844 445.070312 202.535156 C 445.070312 200.230469 445.070312 197.925781 445.070312 195.550781 Z M 445.070312 195.550781 "/>
<path style=" stroke:none;fill-rule:nonzero;fill:rgb(94.509804%,94.509804%,94.509804%);fill-opacity:1;" d="M 292.992188 195.550781 C 304.1875 195.453125 315.382812 195.378906 326.582031 195.335938 C 331.78125 195.3125 336.980469 195.28125 342.179688 195.234375 C 347.210938 195.1875 352.238281 195.164062 357.269531 195.152344 C 359.175781 195.144531 361.085938 195.132812 362.992188 195.109375 C 384.304688 194.863281 401.585938 199.242188 417.554688 213.863281 C 421.324219 218.007812 423.574219 222.464844 425.539062 227.675781 C 426.035156 228.941406 426.53125 230.203125 427.042969 231.503906 C 431.121094 245.953125 429.414062 263.214844 422.75 276.566406 C 417.351562 285.398438 410.558594 292.015625 401.820312 297.515625 C 401.027344 298.046875 400.234375 298.578125 399.417969 299.125 C 394.597656 300.921875 389.792969 300.601562 384.730469 300.484375 C 383.691406 300.472656 382.648438 300.460938 381.578125 300.445312 C 379.023438 300.414062 376.46875 300.363281 373.917969 300.3125 C 373.917969 299.390625 373.917969 298.46875 373.917969 297.515625 C 377.363281 295.289062 380.941406 293.378906 384.542969 291.417969 C 388.03125 289.023438 389.191406 287.453125 390.660156 283.550781 C 391.578125 283.550781 392.5 283.550781 393.449219 283.550781 C 393.632812 282.675781 393.820312 281.800781 394.011719 280.898438 C 394.378906 279.183594 394.378906 279.183594 394.757812 277.4375 C 395 276.304688 395.242188 275.167969 395.492188 274 C 396.238281 270.976562 396.238281 270.976562 397.632812 268.183594 C 400.042969 248.738281 399.996094 230.964844 389.613281 213.882812 C 379.578125 204.394531 367.792969 203.726562 354.46875 203.84375 C 353.039062 203.855469 353.039062 203.855469 351.578125 203.863281 C 349.257812 203.878906 346.9375 203.90625 344.617188 203.933594 C 344.617188 204.855469 344.617188 205.777344 344.617188 206.726562 C 343.695312 206.726562 342.773438 206.726562 341.828125 206.726562 C 341.585938 215.105469 341.355469 223.488281 341.128906 231.867188 C 341.09375 233.105469 341.0625 234.34375 341.027344 235.617188 C 340.585938 252.109375 340.273438 268.578125 340.484375 285.074219 C 340.496094 286.289062 340.507812 287.507812 340.519531 288.761719 C 340.535156 289.789062 340.550781 290.816406 340.566406 291.875 C 340.429688 294.722656 340.429688 294.722656 339.035156 300.3125 C 330.75 300.3125 322.460938 300.3125 313.921875 300.3125 C 313.871094 296.707031 313.871094 296.707031 313.816406 293.027344 C 313.699219 285.0625 313.574219 277.09375 313.449219 269.128906 C 313.371094 264.300781 313.296875 259.472656 313.226562 254.648438 C 313.148438 249.089844 313.058594 243.53125 312.96875 237.972656 C 312.945312 236.25 312.921875 234.53125 312.898438 232.757812 C 313.398438 219.304688 313.398438 219.304688 309.402344 206.917969 C 306.21875 204.859375 303.4375 204.300781 299.707031 203.671875 C 298.453125 203.449219 297.195312 203.226562 295.898438 203 C 294.941406 202.847656 293.980469 202.691406 292.992188 202.535156 C 292.992188 200.230469 292.992188 197.925781 292.992188 195.550781 Z M 292.992188 195.550781 "/>
<path style=" stroke:none;fill-rule:nonzero;fill:rgb(93.725491%,93.725491%,93.725491%);fill-opacity:1;" d="M 202.304688 194.15625 C 204.609375 194.15625 206.910156 194.15625 209.28125 194.15625 C 213.257812 202.726562 216.695312 211.414062 219.925781 220.289062 C 221.980469 225.890625 224.1875 231.40625 226.492188 236.910156 C 230.53125 246.546875 234.34375 256.269531 238.144531 266 C 238.828125 267.75 239.511719 269.5 240.195312 271.246094 C 241.445312 274.441406 242.695312 277.636719 243.941406 280.828125 C 244.976562 283.464844 246.042969 286.085938 247.152344 288.6875 C 248.628906 292.691406 248.542969 296.082031 248.347656 300.3125 C 244.246094 300.5 240.15625 300.636719 236.050781 300.746094 C 234.890625 300.804688 233.726562 300.863281 232.527344 300.925781 C 229.300781 300.988281 226.398438 300.945312 223.234375 300.3125 C 220.585938 297.425781 220.585938 297.425781 219.046875 293.328125 C 218.085938 290.980469 218.085938 290.980469 217.101562 288.589844 C 216.433594 286.796875 215.777344 285 215.125 283.199219 C 214.765625 282.234375 214.410156 281.269531 214.042969 280.273438 C 211.019531 272.042969 208.148438 263.757812 205.269531 255.480469 C 202.765625 248.359375 199.949219 241.488281 196.722656 234.660156 C 192.238281 245.097656 188.195312 255.621094 184.429688 266.339844 C 182.59375 271.480469 180.613281 276.546875 178.554688 281.601562 C 176.578125 286.453125 174.679688 291.335938 172.773438 296.214844 C 171.609375 298.914062 171.609375 298.914062 170.214844 300.3125 C 167.890625 300.367188 165.5625 300.371094 163.238281 300.3125 C 164.339844 293.25 166.796875 286.683594 169.167969 279.96875 C 169.609375 278.714844 170.050781 277.460938 170.503906 276.171875 C 173.308594 268.269531 176.320312 260.503906 179.640625 252.804688 C 181.761719 247.710938 183.660156 242.546875 185.5625 237.367188 C 188.449219 229.527344 191.644531 221.9375 195.191406 214.371094 C 197.507812 209.152344 199.234375 203.792969 200.910156 198.34375 C 201.371094 196.960938 201.832031 195.578125 202.304688 194.15625 Z M 202.304688 194.15625 "/>
<path style=" stroke:none;fill-rule:nonzero;fill:rgb(96.470588%,96.470588%,96.470588%);fill-opacity:1;" d="M 292.992188 195.550781 C 310.222656 195.246094 327.410156 196.15625 344.617188 196.949219 C 344.617188 197.871094 344.617188 198.792969 344.617188 199.742188 C 345.078125 198.820312 345.539062 197.898438 346.011719 196.949219 C 347.855469 196.949219 349.695312 196.949219 351.59375 196.949219 C 352.285156 199.023438 352.285156 199.023438 352.988281 201.136719 C 348.800781 203.933594 348.800781 203.933594 344.617188 203.933594 C 344.617188 204.855469 344.617188 205.777344 344.617188 206.726562 C 343.695312 206.726562 342.773438 206.726562 341.828125 206.726562 C 341.585938 215.105469 341.355469 223.488281 341.128906 231.867188 C 341.09375 233.105469 341.0625 234.34375 341.027344 235.617188 C 340.585938 252.109375 340.273438 268.578125 340.484375 285.074219 C 340.496094 286.289062 340.507812 287.507812 340.519531 288.761719 C 340.535156 289.789062 340.550781 290.816406 340.566406 291.875 C 340.429688 294.722656 340.429688 294.722656 339.035156 300.3125 C 330.75 300.3125 322.460938 300.3125 313.921875 300.3125 C 313.871094 296.707031 313.871094 296.707031 313.816406 293.027344 C 313.699219 285.0625 313.574219 277.09375 313.449219 269.128906 C 313.371094 264.300781 313.296875 259.472656 313.226562 254.648438 C 313.148438 249.089844 313.058594 243.53125 312.96875 237.972656 C 312.945312 236.25 312.921875 234.53125 312.898438 232.757812 C 313.398438 219.304688 313.398438 219.304688 309.402344 206.917969 C 306.21875 204.859375 303.4375 204.300781 299.707031 203.671875 C 298.453125 203.449219 297.195312 203.226562 295.898438 203 C 294.941406 202.847656 293.980469 202.691406 292.992188 202.535156 C 292.992188 200.230469 292.992188 197.925781 292.992188 195.550781 Z M 292.992188 195.550781 "/>
<path style=" stroke:none;fill-rule:nonzero;fill:rgb(92.54902%,92.54902%,92.54902%);fill-opacity:1;" d="M 468.820312 361.199219 C 472.40625 361.082031 475.929688 361.164062 479.515625 361.332031 C 480.761719 361.363281 482.007812 361.394531 483.289062 361.429688 C 486.367188 361.511719 489.4375 361.625 492.507812 361.769531 C 492.855469 362.863281 493.199219 363.960938 493.554688 365.085938 C 494.96875 368.828125 494.96875 368.828125 497.816406 370.539062 C 501.28125 371.679688 504.394531 372.078125 508.03125 372.332031 C 514.5625 372.808594 514.5625 372.808594 517.621094 374.339844 C 517.621094 376.644531 517.621094 378.949219 517.621094 381.324219 C 493.679688 381.324219 469.738281 381.324219 445.070312 381.324219 C 445.070312 374.339844 445.070312 374.339844 446.46875 372.945312 C 448.585938 372.84375 450.710938 372.828125 452.832031 372.855469 C 453.984375 372.871094 455.136719 372.882812 456.328125 372.894531 C 457.214844 372.910156 458.105469 372.925781 459.023438 372.945312 C 459.023438 372.023438 459.023438 371.101562 459.023438 370.148438 C 459.945312 369.6875 460.867188 369.226562 461.8125 368.753906 C 462.519531 366.996094 462.519531 366.996094 463.238281 365.203125 C 466 361.769531 466 361.769531 468.820312 361.199219 Z M 468.820312 361.199219 "/>
<path style=" stroke:none;fill-rule:nonzero;fill:rgb(89.803922%,89.803922%,89.803922%);fill-opacity:1;" d="M 312.527344 361.769531 C 317.089844 361.566406 321.652344 361.441406 326.21875 361.332031 C 327.511719 361.273438 328.808594 361.214844 330.144531 361.15625 C 333.703125 361.089844 336.9375 361.09375 340.429688 361.769531 C 343.238281 365.203125 343.238281 365.203125 344.617188 368.753906 C 345.539062 369.214844 346.457031 369.675781 347.40625 370.148438 C 347.40625 371.070312 347.40625 371.992188 347.40625 372.945312 C 349.019531 372.917969 349.019531 372.917969 350.667969 372.894531 C 352.066406 372.882812 353.464844 372.871094 354.90625 372.855469 C 356.296875 372.839844 357.691406 372.824219 359.125 372.808594 C 362.753906 372.945312 362.753906 372.945312 365.542969 374.339844 C 365.542969 376.644531 365.542969 378.949219 365.542969 381.324219 C 341.601562 381.324219 317.660156 381.324219 292.992188 381.324219 C 292.992188 379.019531 292.992188 376.714844 292.992188 374.339844 C 293.953125 374.1875 294.910156 374.035156 295.898438 373.875 C 297.15625 373.65625 298.414062 373.433594 299.707031 373.207031 C 300.953125 372.996094 302.203125 372.785156 303.484375 372.566406 C 307.304688 371.441406 308.78125 370.539062 311.132812 367.355469 C 311.640625 365.503906 312.109375 363.644531 312.527344 361.769531 Z M 312.527344 361.769531 "/>
<path style=" stroke:none;fill-rule:nonzero;fill:rgb(75.686276%,76.078433%,76.078433%);fill-opacity:1;" d="M 399.902344 417.464844 C 400.996094 417.523438 402.089844 417.582031 403.214844 417.640625 C 404.136719 419.484375 405.058594 421.328125 406.007812 423.226562 C 406.925781 423.226562 407.847656 423.226562 408.796875 423.226562 C 409.257812 421.84375 409.71875 420.460938 410.191406 419.039062 C 411.445312 420.03125 411.445312 420.03125 412.71875 421.046875 C 415.777344 423.457031 415.777344 423.457031 419.957031 424.625 C 419.957031 428.773438 419.957031 432.921875 419.957031 437.195312 C 420.878906 436.734375 421.800781 436.273438 422.75 435.800781 C 423.398438 432.832031 423.398438 432.832031 423.621094 429.425781 C 423.726562 428.273438 423.828125 427.117188 423.9375 425.929688 C 424.003906 425.039062 424.074219 424.148438 424.144531 423.226562 C 424.984375 423.472656 425.828125 423.714844 426.695312 423.964844 C 430.398438 424.773438 433.058594 424.140625 436.699219 423.226562 C 437.160156 421.382812 437.621094 419.539062 438.097656 417.640625 C 439.015625 417.640625 439.9375 417.640625 440.886719 417.640625 C 440.886719 419.484375 440.886719 421.328125 440.886719 423.226562 C 442.222656 423.488281 442.222656 423.488281 443.589844 423.753906 C 445.015625 424.183594 445.015625 424.183594 446.46875 424.625 C 447.15625 426.007812 447.15625 426.007812 447.863281 427.417969 C 448.78125 426.035156 449.703125 424.652344 450.652344 423.226562 C 452.035156 423.6875 453.414062 424.148438 454.839844 424.625 C 452.621094 432.113281 450.386719 439.582031 447.863281 446.972656 C 446.019531 446.972656 444.179688 446.972656 442.28125 446.972656 C 442.28125 445.589844 442.28125 444.207031 442.28125 442.785156 C 443.203125 442.785156 444.125 442.785156 445.070312 442.785156 C 444.152344 439.097656 443.230469 435.410156 442.28125 431.609375 C 441.820312 434.835938 441.359375 438.0625 440.886719 441.386719 C 430.296875 441.386719 419.707031 441.386719 408.796875 441.386719 C 408.796875 437.238281 408.796875 433.089844 408.796875 428.816406 C 407.875 428.816406 406.953125 428.816406 406.007812 428.816406 C 406.007812 427.894531 406.007812 426.972656 406.007812 426.023438 C 404.625 426.023438 403.242188 426.023438 401.820312 426.023438 C 401.820312 425.101562 401.820312 424.179688 401.820312 423.226562 C 400.4375 423.917969 400.4375 423.917969 399.03125 424.625 C 399.03125 425.546875 399.03125 426.46875 399.03125 427.417969 C 399.894531 427.5625 400.757812 427.707031 401.644531 427.855469 C 404.609375 428.816406 404.609375 428.816406 407.402344 433.007812 C 406.917969 436.195312 406.050781 438.5 404.609375 441.386719 C 401.355469 441.445312 398.097656 441.445312 394.84375 441.386719 C 393.449219 439.988281 393.449219 439.988281 393.363281 436.410156 C 393.390625 435.289062 393.417969 434.164062 393.449219 433.007812 C 396.238281 434.402344 399.03125 435.800781 401.820312 437.195312 C 400.898438 436.332031 399.980469 435.46875 399.03125 434.578125 C 396.238281 431.609375 396.238281 431.609375 396.238281 428.816406 C 395.320312 428.816406 394.398438 428.816406 393.449219 428.816406 C 393.273438 424.800781 393.273438 424.800781 393.449219 420.433594 C 396.238281 417.640625 396.238281 417.640625 399.902344 417.464844 Z M 414.378906 427.417969 C 412.484375 428.992188 412.484375 428.992188 412.894531 433.09375 C 412.921875 434.449219 412.953125 435.800781 412.980469 437.195312 C 413.902344 437.195312 414.824219 437.195312 415.773438 437.195312 C 415.773438 433.96875 415.773438 430.742188 415.773438 427.417969 C 415.3125 427.417969 414.851562 427.417969 414.378906 427.417969 Z M 433.910156 427.417969 C 432.945312 430 432.945312 430 432.515625 433.007812 C 433.894531 435.082031 433.894531 435.082031 435.304688 437.195312 C 437.113281 435.707031 437.113281 435.707031 436.789062 432.21875 C 436.757812 431.097656 436.730469 429.972656 436.699219 428.816406 C 435.78125 428.355469 434.859375 427.894531 433.910156 427.417969 Z M 433.910156 427.417969 "/>
<path style=" stroke:none;fill-rule:nonzero;fill:rgb(89.019608%,89.019608%,89.019608%);fill-opacity:1;" d="M 246.953125 361.769531 C 251.515625 361.605469 256.078125 361.507812 260.644531 361.421875 C 261.9375 361.375 263.234375 361.328125 264.570312 361.277344 C 266.4375 361.25 266.4375 361.25 268.34375 361.222656 C 270.0625 361.179688 270.0625 361.179688 271.820312 361.136719 C 274.855469 361.769531 274.855469 361.769531 277.355469 364.421875 C 279.042969 367.355469 279.042969 367.355469 279.042969 370.148438 C 282.726562 371.070312 286.410156 371.992188 290.203125 372.945312 C 290.203125 375.710938 290.203125 378.476562 290.203125 381.324219 C 269.484375 381.324219 248.765625 381.324219 227.417969 381.324219 C 227.417969 379.019531 227.417969 376.714844 227.417969 374.339844 C 228.882812 374.085938 228.882812 374.085938 230.375 373.828125 C 232.277344 373.476562 232.277344 373.476562 234.222656 373.117188 C 235.484375 372.890625 236.746094 372.664062 238.046875 372.429688 C 241.601562 371.785156 241.601562 371.785156 244.160156 368.753906 C 245.148438 366.449219 246.085938 364.121094 246.953125 361.769531 Z M 246.953125 361.769531 "/>
<path style=" stroke:none;fill-rule:nonzero;fill:rgb(93.725491%,93.725491%,93.725491%);fill-opacity:1;" d="M 139.90625 361.113281 C 143.621094 361.070312 147.027344 361.097656 150.683594 361.769531 C 153.386719 365.085938 153.386719 365.085938 154.867188 368.753906 C 159.058594 371.550781 161.441406 372.234375 166.292969 373.117188 C 167.546875 373.351562 168.804688 373.585938 170.101562 373.828125 C 171.539062 374.082031 171.539062 374.082031 173.007812 374.339844 C 173.007812 376.644531 173.007812 378.949219 173.007812 381.324219 C 155.96875 381.324219 138.933594 381.324219 121.382812 381.324219 C 121.382812 379.019531 121.382812 376.714844 121.382812 374.339844 C 124.03125 371.972656 124.03125 371.972656 127.488281 369.976562 C 132.027344 367.308594 135.246094 362.074219 139.90625 361.113281 Z M 139.90625 361.113281 "/>
<path style=" stroke:none;fill-rule:nonzero;fill:rgb(78.431374%,79.607844%,80.000001%);fill-opacity:1;" d="M 265.089844 417.203125 C 266.472656 417.347656 267.851562 417.492188 269.277344 417.640625 C 272.066406 421.832031 272.066406 421.832031 272.066406 426.023438 C 270.683594 426.023438 269.304688 426.023438 267.878906 426.023438 C 267.878906 425.101562 267.878906 424.179688 267.878906 423.226562 C 266.5 423.6875 265.117188 424.148438 263.695312 424.625 C 263.695312 428.3125 263.695312 432 263.695312 435.800781 C 264.617188 435.800781 265.535156 435.800781 266.484375 435.800781 C 266.945312 434.417969 267.40625 433.035156 267.878906 431.609375 C 266.5 431.609375 265.117188 431.609375 263.695312 431.609375 C 263.695312 430.226562 263.695312 428.84375 263.695312 427.417969 C 265.019531 427.503906 266.34375 427.589844 267.707031 427.679688 C 269.863281 427.550781 269.863281 427.550781 272.066406 427.417969 C 272.988281 426.035156 273.90625 424.652344 274.855469 423.226562 C 278.34375 422.792969 278.34375 422.792969 281.832031 423.226562 C 284.621094 426.023438 284.621094 426.023438 284.894531 429.65625 C 284.863281 431.050781 284.832031 432.441406 284.796875 433.878906 C 284.773438 435.28125 284.746094 436.679688 284.722656 438.125 C 284.6875 439.199219 284.65625 440.277344 284.621094 441.386719 C 280.9375 441.386719 277.257812 441.386719 273.460938 441.386719 C 273.460938 440.464844 273.460938 439.542969 273.460938 438.59375 C 272.078125 439.515625 270.699219 440.4375 269.277344 441.386719 C 265.003906 441.734375 265.003906 441.734375 260.902344 441.386719 C 258.113281 438.59375 258.113281 438.59375 257.742188 434.445312 C 257.75 432.820312 257.757812 431.191406 257.765625 429.515625 C 257.757812 427.886719 257.75 426.257812 257.742188 424.582031 C 258.257812 418.84375 259.378906 417.800781 265.089844 417.203125 Z M 277.648438 427.417969 C 277.1875 428.339844 276.726562 429.261719 276.25 430.210938 C 277.632812 429.75 279.015625 429.289062 280.4375 428.816406 C 279.515625 428.355469 278.59375 427.894531 277.648438 427.417969 Z M 277.648438 434.402344 C 277.1875 435.324219 276.726562 436.246094 276.25 437.195312 C 277.632812 436.734375 279.015625 436.273438 280.4375 435.800781 C 279.515625 435.339844 278.59375 434.878906 277.648438 434.402344 Z M 277.648438 434.402344 "/>
<path style=" stroke:none;fill-rule:nonzero;fill:rgb(73.333335%,74.117649%,74.117649%);fill-opacity:1;" d="M 306.945312 417.640625 C 308.328125 417.640625 309.707031 417.640625 311.132812 417.640625 C 311.59375 419.484375 312.050781 421.328125 312.527344 423.226562 C 313.449219 421.382812 314.367188 419.539062 315.316406 417.640625 C 317.160156 417.640625 319 417.640625 320.898438 417.640625 C 320.898438 419.023438 320.898438 420.40625 320.898438 421.832031 C 321.820312 422.292969 322.738281 422.753906 323.6875 423.226562 C 325.257812 426.109375 325.257812 426.109375 326.480469 428.816406 C 327.398438 426.972656 328.320312 425.128906 329.269531 423.226562 C 330.191406 423.226562 331.109375 423.226562 332.058594 423.226562 C 332.996094 431.886719 329.617188 439.089844 326.480469 446.972656 C 324.636719 446.972656 322.796875 446.972656 320.898438 446.972656 C 321.15625 445.273438 321.417969 443.574219 321.683594 441.824219 C 322.28125 437.15625 322.183594 433.398438 320.898438 428.816406 C 319.976562 428.816406 319.054688 428.816406 318.109375 428.816406 C 318.109375 432.964844 318.109375 437.113281 318.109375 441.386719 C 316.726562 441.386719 315.34375 441.386719 313.921875 441.386719 C 312.652344 437.09375 312.402344 433.285156 312.527344 428.816406 C 312.066406 432.964844 311.605469 437.113281 311.132812 441.386719 C 309.75 441.386719 308.371094 441.386719 306.945312 441.386719 C 306.945312 433.550781 306.945312 425.714844 306.945312 417.640625 Z M 306.945312 417.640625 "/>
<path style=" stroke:none;fill-rule:nonzero;fill:rgb(81.568629%,81.568629%,81.568629%);fill-opacity:1;" d="M 229.859375 315.238281 C 235.734375 315.269531 238.570312 317.0625 242.765625 321.261719 C 242.089844 325.625 241.375 329.636719 239.976562 333.832031 C 240.859375 335.71875 241.789062 337.582031 242.765625 339.421875 C 242.765625 340.804688 242.765625 342.1875 242.765625 343.609375 C 240.152344 343.261719 240.152344 343.261719 237.1875 342.214844 C 235.441406 339.332031 235.441406 339.332031 234.394531 336.628906 C 233.472656 336.628906 232.554688 336.628906 231.605469 336.628906 C 231.144531 338.472656 230.683594 340.316406 230.210938 342.214844 C 227.507812 343 227.507812 343 224.628906 343.609375 C 222.503906 341.484375 223.050781 339.585938 223.046875 336.628906 C 223.046875 335.503906 223.042969 334.378906 223.042969 333.222656 C 223.046875 332.042969 223.054688 330.859375 223.058594 329.644531 C 223.054688 328.460938 223.046875 327.28125 223.042969 326.0625 C 223.042969 324.941406 223.046875 323.816406 223.046875 322.660156 C 223.050781 321.621094 223.050781 320.585938 223.054688 319.515625 C 223.402344 314.792969 224.953125 315.648438 229.859375 315.238281 Z M 230.210938 321.261719 C 230.210938 323.566406 230.210938 325.871094 230.210938 328.246094 C 232.050781 327.785156 233.894531 327.324219 235.789062 326.851562 C 235.328125 325.007812 234.871094 323.164062 234.394531 321.261719 C 233.015625 321.261719 231.632812 321.261719 230.210938 321.261719 Z M 230.210938 321.261719 "/>
<path style=" stroke:none;fill-rule:nonzero;fill:rgb(83.529413%,83.529413%,83.529413%);fill-opacity:1;" d="M 493.902344 315.675781 C 496.667969 316.367188 496.667969 316.367188 499.484375 317.070312 C 499.945312 323.984375 500.40625 330.902344 500.878906 338.023438 C 503.183594 337.5625 505.484375 337.101562 507.855469 336.628906 C 508.316406 330.175781 508.777344 323.722656 509.25 317.070312 C 511.554688 316.609375 513.855469 316.148438 516.226562 315.675781 C 516.265625 319.109375 516.292969 322.542969 516.316406 325.976562 C 516.328125 326.953125 516.339844 327.929688 516.351562 328.933594 C 516.386719 336.3125 516.386719 336.3125 514.832031 339.421875 C 513.910156 339.421875 512.992188 339.421875 512.042969 339.421875 C 512.042969 340.34375 512.042969 341.265625 512.042969 342.214844 C 501.898438 343.90625 501.898438 343.90625 497.566406 342.652344 C 494.707031 340.339844 493.847656 338.671875 492.507812 335.230469 C 492.1875 330.761719 492.1875 330.761719 492.246094 325.890625 C 492.257812 324.269531 492.265625 322.652344 492.273438 320.984375 C 492.507812 317.070312 492.507812 317.070312 493.902344 315.675781 Z M 493.902344 315.675781 "/>
<path style=" stroke:none;fill-rule:nonzero;fill:rgb(79.607844%,79.607844%,79.607844%);fill-opacity:1;" d="M 189.75 315.675781 C 193.203125 316.367188 193.203125 316.367188 196.722656 317.070312 C 197.183594 323.523438 197.644531 329.980469 198.121094 336.628906 C 200.421875 336.167969 202.722656 335.707031 205.097656 335.230469 C 205.554688 329.238281 206.015625 323.246094 206.492188 317.070312 C 208.332031 316.609375 210.175781 316.148438 212.070312 315.675781 C 212.070312 323.511719 212.070312 331.347656 212.070312 339.421875 C 211.152344 339.421875 210.230469 339.421875 209.28125 339.421875 C 209.28125 340.34375 209.28125 341.265625 209.28125 342.214844 C 199.203125 344.09375 199.203125 344.09375 194.019531 341.777344 C 191.144531 339.421875 191.144531 339.421875 189.75 336.628906 C 189.648438 333.0625 189.617188 329.539062 189.660156 325.976562 C 189.667969 324.988281 189.675781 324.003906 189.679688 322.988281 C 189.695312 320.550781 189.722656 318.113281 189.75 315.675781 Z M 189.75 315.675781 "/>
<path style=" stroke:none;fill-rule:nonzero;fill:rgb(87.058824%,87.058824%,87.058824%);fill-opacity:1;" d="M 166.03125 315.675781 C 168.679688 315.789062 168.679688 315.789062 171.609375 317.070312 C 173.582031 320.582031 173.582031 320.582031 175.273438 325.015625 C 176.121094 327.183594 176.121094 327.183594 176.984375 329.398438 C 178.519531 333.648438 179.972656 337.917969 181.378906 342.214844 C 179.535156 342.675781 177.695312 343.136719 175.796875 343.609375 C 175.277344 342.71875 174.761719 341.824219 174.226562 340.90625 C 170.800781 337.132812 168.199219 337.070312 163.238281 336.628906 C 161.859375 340.085938 161.859375 340.085938 160.449219 343.609375 C 159.066406 343.609375 157.6875 343.609375 156.261719 343.609375 C 157.113281 337.230469 158.796875 331.699219 161.148438 325.714844 C 161.765625 324.121094 162.382812 322.527344 163.023438 320.886719 C 164.632812 317.070312 164.632812 317.070312 166.03125 315.675781 Z M 167.425781 325.453125 C 166.964844 327.296875 166.503906 329.140625 166.03125 331.039062 C 166.949219 331.039062 167.871094 331.039062 168.820312 331.039062 C 168.359375 329.195312 167.898438 327.351562 167.425781 325.453125 Z M 167.425781 325.453125 "/>
<path style=" stroke:none;fill-rule:nonzero;fill:rgb(82.745099%,82.745099%,82.745099%);fill-opacity:1;" d="M 260.902344 315.675781 C 262.746094 315.675781 264.585938 315.675781 266.484375 315.675781 C 268.15625 319.539062 269.8125 323.410156 271.457031 327.285156 C 271.933594 328.382812 272.410156 329.480469 272.902344 330.613281 C 273.347656 331.667969 273.792969 332.726562 274.25 333.816406 C 274.667969 334.789062 275.085938 335.761719 275.511719 336.765625 C 276.25 339.421875 276.25 339.421875 274.855469 343.609375 C 273.015625 343.148438 271.171875 342.6875 269.277344 342.214844 C 268.816406 340.371094 268.355469 338.527344 267.878906 336.628906 C 264.65625 336.628906 261.433594 336.628906 258.113281 336.628906 C 257.652344 338.472656 257.191406 340.316406 256.71875 342.214844 C 254.875 342.214844 253.035156 342.214844 251.136719 342.214844 C 253.445312 332.972656 257.148438 324.410156 260.902344 315.675781 Z M 262.300781 326.851562 C 261.839844 328.234375 261.378906 329.617188 260.902344 331.039062 C 262.285156 331.039062 263.667969 331.039062 265.089844 331.039062 C 264.628906 329.65625 264.167969 328.273438 263.695312 326.851562 C 263.234375 326.851562 262.773438 326.851562 262.300781 326.851562 Z M 262.300781 326.851562 "/>
<path style=" stroke:none;fill-rule:nonzero;fill:rgb(74.509805%,75.294119%,74.901962%);fill-opacity:1;" d="M 337.640625 423.226562 C 339.023438 423.226562 340.402344 423.226562 341.828125 423.226562 C 342.285156 425.53125 342.746094 427.835938 343.222656 430.210938 C 344.140625 430.210938 345.0625 430.210938 346.011719 430.210938 C 346.472656 427.90625 346.933594 425.601562 347.40625 423.226562 C 352.691406 423.226562 357.542969 423.824219 362.753906 424.625 C 362.792969 427.15625 362.820312 429.6875 362.839844 432.21875 C 362.859375 433.628906 362.875 435.039062 362.890625 436.492188 C 362.753906 439.988281 362.753906 439.988281 361.359375 441.386719 C 358.105469 441.445312 354.847656 441.445312 351.59375 441.386719 C 350.671875 439.082031 349.75 436.777344 348.800781 434.402344 C 347.421875 438.550781 346.039062 442.699219 344.617188 446.972656 C 342.773438 446.972656 340.933594 446.972656 339.035156 446.972656 C 339.324219 445.390625 339.613281 443.804688 339.90625 442.171875 C 340.785156 435.453125 339.449219 429.6875 337.640625 423.226562 Z M 355.777344 427.417969 C 353.96875 428.910156 353.96875 428.910156 354.296875 432.394531 C 354.324219 433.519531 354.355469 434.640625 354.382812 435.800781 C 355.765625 435.800781 357.144531 435.800781 358.570312 435.800781 C 358.570312 433.496094 358.570312 431.191406 358.570312 428.816406 C 357.648438 428.355469 356.726562 427.894531 355.777344 427.417969 Z M 355.777344 427.417969 "/>
<path style=" stroke:none;fill-rule:nonzero;fill:rgb(80.784315%,80.784315%,80.784315%);fill-opacity:1;" d="M 358.570312 315.675781 C 360.410156 315.675781 362.253906 315.675781 364.148438 315.675781 C 365.070312 322.589844 365.992188 329.503906 366.941406 336.628906 C 369.242188 336.167969 371.542969 335.707031 373.917969 335.230469 C 374.375 328.777344 374.835938 322.324219 375.3125 315.675781 C 377.152344 315.675781 378.996094 315.675781 380.890625 315.675781 C 381.003906 319.3125 381.089844 322.949219 381.152344 326.585938 C 381.1875 327.617188 381.222656 328.648438 381.261719 329.710938 C 381.363281 337.316406 381.363281 337.316406 379.078125 340.757812 C 375.082031 343.214844 371.574219 343.453125 366.941406 343.609375 C 363.015625 342.476562 363.015625 342.476562 359.964844 339.421875 C 357.074219 331.371094 356.769531 323.960938 358.570312 315.675781 Z M 358.570312 315.675781 "/>
<path style=" stroke:none;fill-rule:nonzero;fill:rgb(78.823531%,78.823531%,78.823531%);fill-opacity:1;" d="M 541.339844 317.070312 C 543.347656 319.953125 543.347656 319.953125 544.132812 322.660156 C 540.496094 323.960938 539.050781 324.265625 535.410156 322.746094 C 534.203125 322.011719 534.203125 322.011719 532.96875 321.261719 C 532.96875 322.644531 532.96875 324.027344 532.96875 325.453125 C 534.265625 325.796875 535.558594 326.144531 536.894531 326.5 C 541.597656 328.347656 543.289062 329.355469 545.527344 333.832031 C 545.140625 337.117188 544.210938 339.261719 542.738281 342.214844 C 532.976562 344.136719 532.976562 344.136719 528.085938 342.300781 C 527.050781 341.566406 527.050781 341.566406 525.992188 340.816406 C 525.992188 338.972656 525.992188 337.128906 525.992188 335.230469 C 529.675781 335.691406 533.359375 336.152344 537.15625 336.628906 C 537.15625 335.246094 537.15625 333.863281 537.15625 332.4375 C 536.089844 332.265625 535.027344 332.089844 533.929688 331.914062 C 530.179688 331.039062 530.179688 331.039062 525.992188 328.246094 C 525.382812 324.144531 525.382812 324.144531 525.992188 319.867188 C 530.40625 314.386719 534.976562 315.300781 541.339844 317.070312 Z M 541.339844 317.070312 "/>
<path style=" stroke:none;fill-rule:nonzero;fill:rgb(76.862746%,76.862746%,76.862746%);fill-opacity:1;" d="M 402.953125 316.023438 C 404.421875 316.371094 405.890625 316.714844 407.402344 317.070312 C 407.863281 319.375 408.320312 321.679688 408.796875 324.054688 C 406.953125 324.054688 405.113281 324.054688 403.214844 324.054688 C 403.214844 323.132812 403.214844 322.210938 403.214844 321.261719 C 401.375 321.261719 399.53125 321.261719 397.632812 321.261719 C 397.632812 322.644531 397.632812 324.027344 397.632812 325.453125 C 400.859375 326.375 404.082031 327.296875 407.402344 328.246094 C 407.402344 329.167969 407.402344 330.089844 407.402344 331.039062 C 408.320312 331.039062 409.242188 331.039062 410.191406 331.039062 C 410.191406 333.804688 410.191406 336.570312 410.191406 339.421875 C 409.269531 339.421875 408.351562 339.421875 407.402344 339.421875 C 407.402344 340.34375 407.402344 341.265625 407.402344 342.214844 C 400.820312 343.507812 396.695312 343.929688 390.660156 340.816406 C 391.117188 338.972656 391.578125 337.128906 392.054688 335.230469 C 395.773438 336.160156 399.496094 337.09375 403.214844 338.023438 C 401.433594 332.675781 399.035156 332.324219 394.273438 329.808594 C 392.054688 328.246094 392.054688 328.246094 390.746094 324.40625 C 390.71875 323.367188 390.6875 322.332031 390.660156 321.261719 C 395.054688 316.863281 396.59375 315.605469 402.953125 316.023438 Z M 402.953125 316.023438 "/>
<path style=" stroke:none;fill-rule:nonzero;fill:rgb(90.588236%,90.588236%,90.588236%);fill-opacity:1;" d="M 307.992188 315.238281 C 313.867188 315.269531 316.703125 317.0625 320.898438 321.261719 C 319.675781 329.292969 319.675781 329.292969 318.109375 332.4375 C 314.886719 332.4375 311.660156 332.4375 308.339844 332.4375 C 308.339844 335.664062 308.339844 338.890625 308.339844 342.214844 C 305.636719 343 305.636719 343 302.761719 343.609375 C 300.636719 341.484375 301.183594 339.585938 301.179688 336.628906 C 301.179688 335.503906 301.175781 334.378906 301.175781 333.222656 C 301.179688 332.042969 301.183594 330.859375 301.191406 329.644531 C 301.183594 328.460938 301.179688 327.28125 301.175781 326.0625 C 301.175781 324.941406 301.179688 323.816406 301.179688 322.660156 C 301.179688 321.621094 301.183594 320.585938 301.183594 319.515625 C 301.535156 314.792969 303.085938 315.648438 307.992188 315.238281 Z M 308.339844 321.261719 C 308.339844 323.566406 308.339844 325.871094 308.339844 328.246094 C 310.183594 327.785156 312.023438 327.324219 313.921875 326.851562 C 313.921875 325.46875 313.921875 324.085938 313.921875 322.660156 C 312.082031 322.199219 310.238281 321.738281 308.339844 321.261719 Z M 308.339844 321.261719 "/>
<path style=" stroke:none;fill-rule:nonzero;fill:rgb(81.176472%,81.960785%,81.568629%);fill-opacity:1;" d="M 438.097656 417.640625 C 439.015625 417.640625 439.9375 417.640625 440.886719 417.640625 C 440.886719 419.484375 440.886719 421.328125 440.886719 423.226562 C 441.777344 423.402344 442.671875 423.574219 443.589844 423.753906 C 444.539062 424.039062 445.488281 424.328125 446.46875 424.625 C 446.925781 425.546875 447.386719 426.46875 447.863281 427.417969 C 448.78125 426.035156 449.703125 424.652344 450.652344 423.226562 C 452.035156 423.6875 453.414062 424.148438 454.839844 424.625 C 452.621094 432.113281 450.386719 439.582031 447.863281 446.972656 C 446.019531 446.972656 444.179688 446.972656 442.28125 446.972656 C 442.28125 445.589844 442.28125 444.207031 442.28125 442.785156 C 443.203125 442.785156 444.125 442.785156 445.070312 442.785156 C 444.152344 439.097656 443.230469 435.410156 442.28125 431.609375 C 440.898438 433.453125 439.519531 435.296875 438.097656 437.195312 C 438.097656 434.429688 438.097656 431.664062 438.097656 428.816406 C 437.175781 428.816406 436.253906 428.816406 435.304688 428.816406 C 434.382812 432.503906 433.464844 436.191406 432.515625 439.988281 C 429.269531 434.914062 429.496094 430.53125 429.722656 424.625 C 432.027344 424.164062 434.328125 423.703125 436.699219 423.226562 C 437.160156 421.382812 437.621094 419.539062 438.097656 417.640625 Z M 438.097656 417.640625 "/>
<path style=" stroke:none;fill-rule:nonzero;fill:rgb(82.745099%,82.745099%,82.745099%);fill-opacity:1;" d="M 442.628906 315.324219 C 448.191406 315.699219 450.777344 316.046875 454.839844 319.867188 C 455.449219 324.84375 455.449219 324.84375 454.839844 329.644531 C 452.046875 332.4375 452.046875 332.4375 446.992188 332.613281 C 445.4375 332.554688 443.882812 332.496094 442.28125 332.4375 C 442.742188 335.664062 443.203125 338.890625 443.675781 342.214844 C 440.972656 343 440.972656 343 438.097656 343.609375 C 435.972656 341.484375 436.519531 339.585938 436.515625 336.628906 C 436.511719 335.503906 436.511719 334.378906 436.511719 333.222656 C 436.515625 332.042969 436.519531 330.859375 436.527344 329.644531 C 436.519531 328.460938 436.515625 327.28125 436.511719 326.0625 C 436.511719 324.941406 436.511719 323.816406 436.515625 322.660156 C 436.515625 321.621094 436.519531 320.585938 436.519531 319.515625 C 436.847656 315.078125 438.089844 315.675781 442.628906 315.324219 Z M 442.28125 321.261719 C 442.28125 323.566406 442.28125 325.871094 442.28125 328.246094 C 444.125 328.246094 445.964844 328.246094 447.863281 328.246094 C 448.324219 326.863281 448.78125 325.480469 449.257812 324.054688 C 448.796875 323.132812 448.335938 322.210938 447.863281 321.261719 C 446.019531 321.261719 444.179688 321.261719 442.28125 321.261719 Z M 442.28125 321.261719 "/>
<path style=" stroke:none;fill-rule:nonzero;fill:rgb(69.803923%,70.588237%,70.588237%);fill-opacity:1;" d="M 286.019531 423.226562 C 288.722656 423.199219 291.429688 423.171875 294.214844 423.140625 C 295.738281 423.125 297.257812 423.109375 298.824219 423.09375 C 302.761719 423.226562 302.761719 423.226562 305.550781 424.625 C 305.550781 430.15625 305.550781 435.6875 305.550781 441.386719 C 304.167969 441.386719 302.789062 441.386719 301.367188 441.386719 C 301.367188 437.238281 301.367188 433.089844 301.367188 428.816406 C 300.445312 428.816406 299.523438 428.816406 298.574219 428.816406 C 298.574219 432.964844 298.574219 437.113281 298.574219 441.386719 C 297.195312 441.386719 295.8125 441.386719 294.390625 441.386719 C 294.390625 437.238281 294.390625 433.089844 294.390625 428.816406 C 293.007812 428.816406 291.625 428.816406 290.203125 428.816406 C 290.203125 432.964844 290.203125 437.113281 290.203125 441.386719 C 288.824219 441.386719 287.441406 441.386719 286.019531 441.386719 C 286.019531 435.394531 286.019531 429.402344 286.019531 423.226562 Z M 286.019531 423.226562 "/>
<path style=" stroke:none;fill-rule:nonzero;fill:rgb(75.294119%,75.294119%,75.294119%);fill-opacity:1;" d="M 459.023438 370.148438 C 459.945312 370.148438 460.867188 370.148438 461.8125 370.148438 C 461.355469 371.992188 460.894531 373.835938 460.417969 375.738281 C 461.800781 375.277344 463.183594 374.816406 464.605469 374.339844 C 465.066406 375.722656 465.527344 377.105469 466 378.53125 C 488.101562 379.222656 488.101562 379.222656 510.648438 379.929688 C 510.648438 380.390625 510.648438 380.851562 510.648438 381.324219 C 489.007812 381.324219 467.367188 381.324219 445.070312 381.324219 C 445.070312 374.339844 445.070312 374.339844 446.46875 372.945312 C 448.585938 372.84375 450.710938 372.828125 452.832031 372.855469 C 453.984375 372.871094 455.136719 372.882812 456.328125 372.894531 C 457.214844 372.910156 458.105469 372.925781 459.023438 372.945312 C 459.023438 372.023438 459.023438 371.101562 459.023438 370.148438 Z M 459.023438 370.148438 "/>
<path style=" stroke:none;fill-rule:nonzero;fill:rgb(78.823531%,78.823531%,78.823531%);fill-opacity:1;" d="M 153.472656 368.753906 C 154.628906 369.394531 154.628906 369.394531 155.804688 370.050781 C 159.339844 371.679688 162.558594 372.414062 166.378906 373.117188 C 167.625 373.351562 168.867188 373.585938 170.148438 373.828125 C 171.5625 374.082031 171.5625 374.082031 173.007812 374.339844 C 173.007812 376.644531 173.007812 378.949219 173.007812 381.324219 C 155.96875 381.324219 138.933594 381.324219 121.382812 381.324219 C 121.382812 379.019531 121.382812 376.714844 121.382812 374.339844 C 121.84375 376.183594 122.304688 378.027344 122.777344 379.929688 C 127.578125 379.894531 132.371094 379.789062 137.167969 379.664062 C 138.527344 379.65625 139.890625 379.648438 141.296875 379.640625 C 145.019531 379.527344 148.441406 379.363281 152.078125 378.53125 C 155.242188 375.246094 155.242188 375.246094 156.261719 371.546875 C 155.34375 371.546875 154.421875 371.546875 153.472656 371.546875 C 153.472656 370.625 153.472656 369.703125 153.472656 368.753906 Z M 153.472656 368.753906 "/>
<path style=" stroke:none;fill-rule:nonzero;fill:rgb(80.392158%,80.392158%,80.392158%);fill-opacity:1;" d="M 466 315.675781 C 467.382812 315.675781 468.761719 315.675781 470.1875 315.675781 C 470.1875 323.050781 470.1875 330.425781 470.1875 338.023438 C 474.328125 338.023438 478.472656 338.023438 482.742188 338.023438 C 482.742188 339.40625 482.742188 340.789062 482.742188 342.214844 C 473.765625 342.90625 473.765625 342.90625 464.605469 343.609375 C 464.566406 339.21875 464.539062 334.824219 464.519531 330.429688 C 464.507812 329.175781 464.496094 327.921875 464.480469 326.628906 C 464.476562 325.4375 464.472656 324.242188 464.46875 323.015625 C 464.457031 321.355469 464.457031 321.355469 464.445312 319.667969 C 464.605469 317.070312 464.605469 317.070312 466 315.675781 Z M 466 315.675781 "/>
<path style=" stroke:none;fill-rule:nonzero;fill:rgb(79.215688%,79.215688%,79.215688%);fill-opacity:1;" d="M 330.664062 315.675781 C 332.046875 315.675781 333.425781 315.675781 334.851562 315.675781 C 336.945312 319.871094 336.375 323.765625 336.332031 328.421875 C 336.320312 330.210938 336.308594 332 336.292969 333.84375 C 336.277344 335.222656 336.261719 336.601562 336.246094 338.023438 C 339.929688 338.023438 343.613281 338.023438 347.40625 338.023438 C 347.867188 339.40625 348.328125 340.789062 348.800781 342.214844 C 339.824219 342.90625 339.824219 342.90625 330.664062 343.609375 C 330.664062 334.390625 330.664062 325.171875 330.664062 315.675781 Z M 330.664062 315.675781 "/>
<path style=" stroke:none;fill-rule:nonzero;fill:rgb(82.352942%,82.352942%,82.352942%);fill-opacity:1;" d="M 171.609375 273.773438 C 172.070312 275.617188 172.53125 277.460938 173.007812 279.359375 C 174.386719 278.898438 175.769531 278.4375 177.191406 277.960938 C 179.035156 283.496094 177.570312 285.4375 175.273438 290.707031 C 174.628906 292.210938 173.984375 293.710938 173.320312 295.257812 C 171.609375 298.914062 171.609375 298.914062 170.214844 300.3125 C 167.890625 300.367188 165.5625 300.371094 163.238281 300.3125 C 164.234375 294.328125 166.125 288.785156 168.210938 283.113281 C 168.535156 282.210938 168.863281 281.308594 169.199219 280.382812 C 170 278.175781 170.804688 275.972656 171.609375 273.773438 Z M 171.609375 273.773438 "/>
<path style=" stroke:none;fill-rule:nonzero;fill:rgb(85.882354%,85.882354%,85.882354%);fill-opacity:1;" d="M 510.648438 315.675781 C 512.488281 315.675781 514.328125 315.675781 516.226562 315.675781 C 516.265625 319.109375 516.292969 322.542969 516.316406 325.976562 C 516.328125 326.953125 516.339844 327.929688 516.351562 328.933594 C 516.386719 336.3125 516.386719 336.3125 514.832031 339.421875 C 513.910156 339.421875 512.992188 339.421875 512.042969 339.421875 C 512.042969 340.34375 512.042969 341.265625 512.042969 342.214844 C 510.660156 342.214844 509.28125 342.214844 507.855469 342.214844 C 507.855469 341.292969 507.855469 340.371094 507.855469 339.421875 C 506.015625 338.960938 504.171875 338.5 502.277344 338.023438 C 504.117188 337.5625 505.957031 337.101562 507.855469 336.628906 C 507.941406 335.230469 508.023438 333.835938 508.113281 332.398438 C 508.230469 330.597656 508.347656 328.792969 508.464844 326.9375 C 508.578125 325.136719 508.691406 323.339844 508.808594 321.484375 C 509.25 317.070312 509.25 317.070312 510.648438 315.675781 Z M 510.648438 315.675781 "/>
<path style=" stroke:none;fill-rule:nonzero;fill:rgb(74.117649%,74.509805%,74.509805%);fill-opacity:1;" d="M 364.148438 423.226562 C 365.53125 423.226562 366.914062 423.226562 368.335938 423.226562 C 368.796875 427.375 369.257812 431.527344 369.730469 435.800781 C 370.652344 435.800781 371.570312 435.800781 372.519531 435.800781 C 372.519531 431.652344 372.519531 427.503906 372.519531 423.226562 C 373.902344 423.6875 375.285156 424.148438 376.707031 424.625 C 376.707031 430.15625 376.707031 435.6875 376.707031 441.386719 C 368.121094 441.523438 368.121094 441.523438 365.542969 441.386719 C 364.148438 439.988281 364.148438 439.988281 364.011719 436.1875 C 364.03125 434.648438 364.046875 433.109375 364.0625 431.523438 C 364.074219 429.980469 364.085938 428.4375 364.101562 426.847656 C 364.117188 425.652344 364.132812 424.457031 364.148438 423.226562 Z M 364.148438 423.226562 "/>
<path style=" stroke:none;fill-rule:nonzero;fill:rgb(86.666667%,86.666667%,86.666667%);fill-opacity:1;" d="M 358.570312 315.675781 C 360.410156 315.675781 362.253906 315.675781 364.148438 315.675781 C 364.609375 323.511719 365.070312 331.347656 365.542969 339.421875 C 367.386719 339.421875 369.226562 339.421875 371.125 339.421875 C 371.125 340.34375 371.125 341.265625 371.125 342.214844 C 363.597656 342.882812 363.597656 342.882812 360.226562 340.207031 C 356.597656 332.371094 356.648438 324.003906 358.570312 315.675781 Z M 358.570312 315.675781 "/>
<path style=" stroke:none;fill-rule:nonzero;fill:rgb(78.039217%,78.039217%,78.039217%);fill-opacity:1;" d="M 207.886719 315.675781 C 209.265625 315.675781 210.648438 315.675781 212.070312 315.675781 C 212.070312 323.511719 212.070312 331.347656 212.070312 339.421875 C 211.152344 339.421875 210.230469 339.421875 209.28125 339.421875 C 209.28125 340.34375 209.28125 341.265625 209.28125 342.214844 C 206.980469 342.675781 204.675781 343.136719 202.304688 343.609375 C 202.304688 342.6875 202.304688 341.765625 202.304688 340.816406 C 203.226562 340.355469 204.148438 339.894531 205.097656 339.421875 C 205.097656 338.039062 205.097656 336.65625 205.097656 335.230469 C 205.277344 332.144531 205.484375 329.058594 205.707031 325.976562 C 205.820312 324.34375 205.933594 322.714844 206.050781 321.035156 C 206.492188 317.070312 206.492188 317.070312 207.886719 315.675781 Z M 207.886719 315.675781 "/>
<path style=" stroke:none;fill-rule:nonzero;fill:rgb(84.313726%,84.313726%,84.313726%);fill-opacity:1;" d="M 401.820312 329.644531 C 405.964844 330.335938 405.964844 330.335938 410.191406 331.039062 C 410.191406 333.804688 410.191406 336.570312 410.191406 339.421875 C 409.269531 339.421875 408.351562 339.421875 407.402344 339.421875 C 407.402344 340.34375 407.402344 341.265625 407.402344 342.214844 C 400.820312 343.507812 396.695312 343.929688 390.660156 340.816406 C 391.117188 338.972656 391.578125 337.128906 392.054688 335.230469 C 397.632812 336.628906 397.632812 336.628906 403.214844 338.023438 C 402.753906 335.257812 402.292969 332.492188 401.820312 329.644531 Z M 401.820312 329.644531 "/>
<path style=" stroke:none;fill-rule:nonzero;fill:rgb(69.01961%,69.01961%,69.01961%);fill-opacity:1;" d="M 302.761719 315.675781 C 312.890625 314.988281 312.890625 314.988281 318.109375 318.46875 C 319.027344 319.390625 319.949219 320.3125 320.898438 321.261719 C 319.675781 329.292969 319.675781 329.292969 318.109375 332.4375 C 314.886719 332.4375 311.660156 332.4375 308.339844 332.4375 C 308.339844 335.664062 308.339844 338.890625 308.339844 342.214844 C 307.882812 342.214844 307.421875 342.214844 306.945312 342.214844 C 306.945312 338.527344 306.945312 334.839844 306.945312 331.039062 C 310.167969 331.039062 313.390625 331.039062 316.710938 331.039062 C 316.710938 330.117188 316.710938 329.195312 316.710938 328.246094 C 313.488281 328.707031 310.265625 329.167969 306.945312 329.644531 C 306.945312 326.417969 306.945312 323.191406 306.945312 319.867188 C 308.789062 319.40625 310.628906 318.945312 312.527344 318.46875 C 309.304688 318.007812 306.082031 317.546875 302.761719 317.070312 C 302.761719 316.609375 302.761719 316.148438 302.761719 315.675781 Z M 308.339844 321.261719 C 308.339844 323.566406 308.339844 325.871094 308.339844 328.246094 C 310.183594 327.785156 312.023438 327.324219 313.921875 326.851562 C 313.921875 325.46875 313.921875 324.085938 313.921875 322.660156 C 312.082031 322.199219 310.238281 321.738281 308.339844 321.261719 Z M 308.339844 321.261719 "/>
<path style=" stroke:none;fill-rule:nonzero;fill:rgb(78.039217%,78.431374%,78.039217%);fill-opacity:1;" d="M 265.089844 417.203125 C 266.472656 417.347656 267.851562 417.492188 269.277344 417.640625 C 272.066406 421.832031 272.066406 421.832031 272.066406 426.023438 C 270.683594 426.023438 269.304688 426.023438 267.878906 426.023438 C 267.878906 425.101562 267.878906 424.179688 267.878906 423.226562 C 266.5 423.6875 265.117188 424.148438 263.695312 424.625 C 263.234375 428.773438 262.773438 432.921875 262.300781 437.195312 C 260.917969 437.65625 259.535156 438.117188 258.113281 438.59375 C 258.039062 435.625 257.984375 432.65625 257.9375 429.6875 C 257.90625 428.035156 257.875 426.382812 257.839844 424.679688 C 258.214844 418.859375 259.3125 417.808594 265.089844 417.203125 Z M 265.089844 417.203125 "/>
<path style=" stroke:none;fill-rule:nonzero;fill:rgb(64.313728%,65.490198%,64.313728%);fill-opacity:1;" d="M 352.988281 423.226562 C 356.210938 423.6875 359.433594 424.148438 362.753906 424.625 C 362.792969 427.15625 362.820312 429.6875 362.839844 432.21875 C 362.859375 433.628906 362.875 435.039062 362.890625 436.492188 C 362.753906 439.988281 362.753906 439.988281 361.359375 441.386719 C 358.105469 441.445312 354.847656 441.445312 351.59375 441.386719 C 352.511719 440.925781 353.433594 440.464844 354.382812 439.988281 C 353.921875 439.066406 353.460938 438.144531 352.988281 437.195312 C 352.933594 434.402344 352.925781 431.609375 352.988281 428.816406 C 353.449219 428.816406 353.910156 428.816406 354.382812 428.816406 C 354.84375 431.121094 355.304688 433.425781 355.777344 435.800781 C 356.238281 435.800781 356.699219 435.800781 357.171875 435.800781 C 357.144531 434.472656 357.117188 433.148438 357.085938 431.785156 C 357.171875 427.417969 357.171875 427.417969 358.570312 424.625 C 356.726562 424.164062 354.886719 423.703125 352.988281 423.226562 Z M 352.988281 423.226562 "/>
<path style=" stroke:none;fill-rule:nonzero;fill:rgb(82.745099%,84.313726%,83.92157%);fill-opacity:1;" d="M 438.097656 417.640625 C 439.015625 417.640625 439.9375 417.640625 440.886719 417.640625 C 440.960938 420.375 441.015625 423.113281 441.0625 425.847656 C 441.09375 427.371094 441.125 428.894531 441.160156 430.464844 C 440.886719 434.402344 440.886719 434.402344 438.097656 437.195312 C 438.097656 434.429688 438.097656 431.664062 438.097656 428.816406 C 437.175781 428.816406 436.253906 428.816406 435.304688 428.816406 C 434.382812 432.503906 433.464844 436.191406 432.515625 439.988281 C 429.269531 434.914062 429.496094 430.53125 429.722656 424.625 C 432.027344 424.164062 434.328125 423.703125 436.699219 423.226562 C 437.160156 421.382812 437.621094 419.539062 438.097656 417.640625 Z M 438.097656 417.640625 "/>
<path style=" stroke:none;fill-rule:nonzero;fill:rgb(60.000002%,60.392159%,60.000002%);fill-opacity:1;" d="M 426.933594 423.226562 C 427.394531 423.226562 427.855469 423.226562 428.328125 423.226562 C 428.789062 426.453125 429.25 429.683594 429.722656 433.007812 C 431.105469 433.007812 432.488281 433.007812 433.910156 433.007812 C 434.371094 433.929688 434.832031 434.851562 435.304688 435.800781 C 435.765625 433.496094 436.226562 431.191406 436.699219 428.816406 C 440.925781 433.574219 440.886719 434.429688 440.886719 441.386719 C 434.902344 441.386719 428.914062 441.386719 422.75 441.386719 C 424.128906 440.925781 425.511719 440.464844 426.933594 439.988281 C 426.933594 434.457031 426.933594 428.925781 426.933594 423.226562 Z M 426.933594 423.226562 "/>
<path style=" stroke:none;fill-rule:nonzero;fill:rgb(78.823531%,78.823531%,78.823531%);fill-opacity:1;" d="M 311.132812 195.550781 C 330.46875 195.550781 349.808594 195.550781 369.730469 195.550781 C 369.730469 196.011719 369.730469 196.472656 369.730469 196.949219 C 368.773438 197.03125 367.8125 197.117188 366.824219 197.203125 C 364.941406 197.378906 364.941406 197.378906 363.015625 197.558594 C 361.148438 197.730469 361.148438 197.730469 359.238281 197.902344 C 355.601562 198.253906 355.601562 198.253906 351.59375 199.742188 C 351.59375 198.820312 351.59375 197.898438 351.59375 196.949219 C 349.75 196.949219 347.910156 196.949219 346.011719 196.949219 C 345.550781 198.332031 345.089844 199.714844 344.617188 201.136719 C 343.234375 200.675781 341.855469 200.214844 340.429688 199.742188 C 341.351562 199.28125 342.273438 198.820312 343.222656 198.34375 C 327.335938 197.652344 327.335938 197.652344 311.132812 196.949219 C 311.132812 196.488281 311.132812 196.027344 311.132812 195.550781 Z M 311.132812 195.550781 "/>
<path style=" stroke:none;fill-rule:nonzero;fill:rgb(77.254903%,78.431374%,78.039217%);fill-opacity:1;" d="M 263.695312 427.417969 C 266.457031 427.417969 269.21875 427.417969 272.066406 427.417969 C 271.871094 429.484375 271.664062 431.550781 271.457031 433.617188 C 271.34375 434.769531 271.230469 435.917969 271.113281 437.105469 C 270.671875 439.988281 270.671875 439.988281 269.277344 441.386719 C 266.484375 441.445312 263.695312 441.445312 260.902344 441.386719 C 260.902344 440.003906 260.902344 438.621094 260.902344 437.195312 C 261.796875 437.050781 262.6875 436.910156 263.605469 436.761719 C 264.558594 436.441406 265.507812 436.125 266.484375 435.800781 C 266.945312 434.417969 267.40625 433.035156 267.878906 431.609375 C 266.5 431.609375 265.117188 431.609375 263.695312 431.609375 C 263.695312 430.226562 263.695312 428.84375 263.695312 427.417969 Z M 263.695312 427.417969 "/>
<path style=" stroke:none;fill-rule:nonzero;fill:rgb(88.627452%,89.019608%,88.627452%);fill-opacity:1;" d="M 378.101562 423.226562 C 380.863281 423.226562 383.625 423.226562 386.472656 423.226562 C 386.472656 425.070312 386.472656 426.914062 386.472656 428.816406 C 385.089844 429.277344 383.710938 429.738281 382.289062 430.210938 C 381.828125 433.898438 381.367188 437.585938 380.890625 441.386719 C 379.972656 441.386719 379.050781 441.386719 378.101562 441.386719 C 378.101562 435.394531 378.101562 429.402344 378.101562 423.226562 Z M 378.101562 423.226562 "/>
<path style=" stroke:none;fill-rule:nonzero;fill:rgb(78.823531%,78.823531%,78.823531%);fill-opacity:1;" d="M 231.605469 331.039062 C 234.367188 331.039062 237.128906 331.039062 239.976562 331.039062 C 240.898438 335.1875 241.816406 339.335938 242.765625 343.609375 C 237.1875 342.214844 237.1875 342.214844 235.441406 339.332031 C 234.921875 337.992188 234.921875 337.992188 234.394531 336.628906 C 233.472656 336.628906 232.554688 336.628906 231.605469 336.628906 C 231.605469 334.785156 231.605469 332.941406 231.605469 331.039062 Z M 231.605469 331.039062 "/>
<path style=" stroke:none;fill-rule:nonzero;fill:rgb(84.705883%,84.705883%,84.705883%);fill-opacity:1;" d="M 541.339844 317.070312 C 543.347656 319.953125 543.347656 319.953125 544.132812 322.660156 C 540.496094 323.960938 539.050781 324.265625 535.410156 322.746094 C 534.203125 322.011719 534.203125 322.011719 532.96875 321.261719 C 532.507812 322.644531 532.050781 324.027344 531.574219 325.453125 C 531.574219 323.148438 531.574219 320.84375 531.574219 318.46875 C 530.652344 318.007812 529.734375 317.546875 528.785156 317.070312 C 533.222656 314.851562 536.632812 315.976562 541.339844 317.070312 Z M 541.339844 317.070312 "/>
<path style=" stroke:none;fill-rule:nonzero;fill:rgb(63.137257%,63.921571%,63.529414%);fill-opacity:1;" d="M 415.773438 423.226562 C 416.691406 423.6875 417.613281 424.148438 418.5625 424.625 C 418.367188 426.894531 418.160156 429.164062 417.953125 431.433594 C 417.839844 432.699219 417.726562 433.960938 417.609375 435.265625 C 417.167969 438.59375 417.167969 438.59375 415.773438 441.386719 C 413.46875 441.386719 411.167969 441.386719 408.796875 441.386719 C 408.796875 439.082031 408.796875 436.777344 408.796875 434.402344 C 409.257812 434.402344 409.71875 434.402344 410.191406 434.402344 C 410.652344 432.097656 411.113281 429.792969 411.585938 427.417969 C 412.507812 427.417969 413.429688 427.417969 414.378906 427.417969 C 414.835938 426.035156 415.296875 424.652344 415.773438 423.226562 Z M 414.378906 427.417969 C 412.484375 428.992188 412.484375 428.992188 412.894531 433.09375 C 412.921875 434.449219 412.953125 435.800781 412.980469 437.195312 C 413.902344 437.195312 414.824219 437.195312 415.773438 437.195312 C 415.773438 433.96875 415.773438 430.742188 415.773438 427.417969 C 415.3125 427.417969 414.851562 427.417969 414.378906 427.417969 Z M 414.378906 427.417969 "/>
<path style=" stroke:none;fill-rule:nonzero;fill:rgb(83.529413%,83.529413%,83.529413%);fill-opacity:1;" d="M 350.199219 372.945312 C 352.230469 372.90625 354.265625 372.878906 356.300781 372.855469 C 357.433594 372.839844 358.566406 372.824219 359.734375 372.808594 C 362.753906 372.945312 362.753906 372.945312 365.542969 374.339844 C 365.542969 376.644531 365.542969 378.949219 365.542969 381.324219 C 361.402344 380.632812 361.402344 380.632812 357.171875 379.929688 C 356.714844 378.546875 356.253906 377.164062 355.777344 375.738281 C 352.988281 374.050781 352.988281 374.050781 350.199219 372.945312 Z M 350.199219 372.945312 "/>
<path style=" stroke:none;fill-rule:nonzero;fill:rgb(68.627453%,70.588237%,69.803923%);fill-opacity:1;" d="M 440.886719 423.226562 C 444.929688 423.882812 446.28125 424.4375 449.257812 427.417969 C 449.257812 429.261719 449.257812 431.105469 449.257812 433.007812 C 447.414062 433.46875 445.574219 433.929688 443.675781 434.402344 C 443.214844 433.480469 442.753906 432.558594 442.28125 431.609375 C 440.898438 432.300781 440.898438 432.300781 439.492188 433.007812 C 439.433594 430.214844 439.433594 427.417969 439.492188 424.625 C 439.953125 424.164062 440.410156 423.703125 440.886719 423.226562 Z M 440.886719 423.226562 "/>
<path style=" stroke:none;fill-rule:nonzero;fill:rgb(89.019608%,89.019608%,89.019608%);fill-opacity:1;" d="M 206.492188 317.070312 C 207.871094 317.070312 209.253906 317.070312 210.675781 317.070312 C 210.675781 322.601562 210.675781 328.132812 210.675781 333.832031 C 209.296875 334.292969 207.914062 334.753906 206.492188 335.230469 C 206.492188 329.238281 206.492188 323.246094 206.492188 317.070312 Z M 206.492188 317.070312 "/>
<path style=" stroke:none;fill-rule:nonzero;fill:rgb(82.352942%,83.529413%,83.529413%);fill-opacity:1;" d="M 286.019531 424.625 C 288.320312 424.625 290.621094 424.625 292.992188 424.625 C 292.992188 425.546875 292.992188 426.46875 292.992188 427.417969 C 291.613281 427.417969 290.230469 427.417969 288.808594 427.417969 C 289.269531 432.027344 289.730469 436.636719 290.203125 441.386719 C 288.824219 441.386719 287.441406 441.386719 286.019531 441.386719 C 286.019531 435.855469 286.019531 430.324219 286.019531 424.625 Z M 286.019531 424.625 "/>
<path style=" stroke:none;fill-rule:nonzero;fill:rgb(83.137256%,83.137256%,83.137256%);fill-opacity:1;" d="M 329.269531 423.226562 C 330.191406 423.226562 331.109375 423.226562 332.058594 423.226562 C 332.546875 430.039062 331.246094 434.082031 327.875 439.988281 C 326.953125 439.988281 326.03125 439.988281 325.082031 439.988281 C 326.121094 434.285156 327.636719 428.789062 329.269531 423.226562 Z M 329.269531 423.226562 "/>
<path style=" stroke:none;fill-rule:nonzero;fill:rgb(83.137256%,83.529413%,83.529413%);fill-opacity:1;" d="M 408.796875 419.039062 C 410.175781 419.5 411.558594 419.960938 412.980469 420.433594 C 413.441406 422.738281 413.902344 425.042969 414.378906 427.417969 C 413.457031 427.417969 412.535156 427.417969 411.585938 427.417969 C 411.585938 430.644531 411.585938 433.871094 411.585938 437.195312 C 407.675781 433.28125 407.867188 430.050781 407.402344 424.625 C 408.011719 421.21875 408.011719 421.21875 408.796875 419.039062 Z M 408.796875 419.039062 "/>
<path style=" stroke:none;fill-rule:nonzero;fill:rgb(81.568629%,83.137256%,82.745099%);fill-opacity:1;" d="M 306.945312 424.625 C 307.867188 424.625 308.789062 424.625 309.738281 424.625 C 311.105469 430.285156 311.246094 435.574219 311.132812 441.386719 C 309.75 441.386719 308.371094 441.386719 306.945312 441.386719 C 306.945312 435.855469 306.945312 430.324219 306.945312 424.625 Z M 306.945312 424.625 "/>
<path style=" stroke:none;fill-rule:nonzero;fill:rgb(70.980394%,70.980394%,70.980394%);fill-opacity:1;" d="M 157.660156 335.230469 C 162.722656 335.230469 167.789062 335.230469 173.007812 335.230469 C 172.546875 336.152344 172.085938 337.074219 171.609375 338.023438 C 167.46875 337.332031 167.46875 337.332031 163.238281 336.628906 C 162.320312 338.933594 161.398438 341.238281 160.449219 343.609375 C 159.066406 343.609375 157.6875 343.609375 156.261719 343.609375 C 156.722656 340.84375 157.183594 338.078125 157.660156 335.230469 Z M 157.660156 335.230469 "/>
<path style=" stroke:none;fill-rule:nonzero;fill:rgb(62.7451%,63.137257%,63.137257%);fill-opacity:1;" d="M 265.003906 417.292969 C 266.414062 417.40625 267.824219 417.523438 269.277344 417.640625 C 272.066406 421.832031 272.066406 421.832031 272.066406 426.023438 C 270.683594 426.023438 269.304688 426.023438 267.878906 426.023438 C 267.878906 425.101562 267.878906 424.179688 267.878906 423.226562 C 266.039062 423.6875 264.195312 424.148438 262.300781 424.625 C 262.300781 423.226562 262.300781 421.832031 262.300781 420.433594 C 261.378906 419.972656 260.457031 419.511719 259.507812 419.039062 C 260.902344 417.640625 260.902344 417.640625 265.003906 417.292969 Z M 265.003906 417.292969 "/>
<path style=" stroke:none;fill-rule:nonzero;fill:rgb(75.686276%,75.686276%,75.686276%);fill-opacity:1;" d="M 392.054688 335.230469 C 396.140625 336.105469 399.535156 337.445312 403.214844 339.421875 C 401.375 339.421875 399.53125 339.421875 397.632812 339.421875 C 397.632812 340.34375 397.632812 341.265625 397.632812 342.214844 C 395.332031 341.753906 393.03125 341.292969 390.660156 340.816406 C 391.117188 338.972656 391.578125 337.128906 392.054688 335.230469 Z M 392.054688 335.230469 "/>
<path style=" stroke:none;fill-rule:nonzero;fill:rgb(94.901961%,94.901961%,94.901961%);fill-opacity:1;" d="M 238.582031 321.261719 C 239.5 321.722656 240.421875 322.183594 241.371094 322.660156 C 241.371094 324.964844 241.371094 327.269531 241.371094 329.644531 C 238.609375 330.566406 235.847656 331.488281 233 332.4375 C 232.078125 331.515625 231.160156 330.59375 230.210938 329.644531 C 231.074219 329.558594 231.9375 329.46875 232.824219 329.382812 C 236.179688 328.484375 236.179688 328.484375 237.535156 324.667969 C 237.878906 323.542969 238.226562 322.421875 238.582031 321.261719 Z M 238.582031 321.261719 "/>
<path style=" stroke:none;fill-rule:nonzero;fill:rgb(82.352942%,82.745099%,82.352942%);fill-opacity:1;" d="M 359.964844 426.023438 C 362.886719 430.773438 363.003906 434.476562 362.753906 439.988281 C 360.453125 440.449219 358.148438 440.910156 355.777344 441.386719 C 355.777344 440.464844 355.777344 439.542969 355.777344 438.59375 C 356.699219 438.132812 357.621094 437.671875 358.570312 437.195312 C 359.21875 434.550781 359.21875 434.550781 359.441406 431.523438 C 359.613281 429.707031 359.785156 427.890625 359.964844 426.023438 Z M 359.964844 426.023438 "/>
<path style=" stroke:none;fill-rule:nonzero;fill:rgb(66.274512%,67.843139%,67.843139%);fill-opacity:1;" d="M 272.066406 433.007812 C 273.707031 433.742188 273.707031 433.742188 275.378906 434.488281 C 277.191406 435.136719 277.191406 435.136719 279.042969 435.800781 C 279.960938 435.339844 280.882812 434.878906 281.832031 434.402344 C 281.371094 435.785156 280.910156 437.167969 280.4375 438.59375 C 279.515625 438.59375 278.59375 438.59375 277.648438 438.59375 C 277.648438 439.515625 277.648438 440.4375 277.648438 441.386719 C 276.265625 441.386719 274.882812 441.386719 273.460938 441.386719 C 273.460938 440.464844 273.460938 439.542969 273.460938 438.59375 C 272.539062 438.59375 271.621094 438.59375 270.671875 438.59375 C 271.132812 436.75 271.589844 434.90625 272.066406 433.007812 Z M 272.066406 433.007812 "/>
<path style=" stroke:none;fill-rule:nonzero;fill:rgb(74.117649%,75.294119%,75.294119%);fill-opacity:1;" d="M 263.695312 427.417969 C 266.457031 427.417969 269.21875 427.417969 272.066406 427.417969 C 271.605469 431.105469 271.144531 434.792969 270.671875 438.59375 C 270.210938 438.59375 269.75 438.59375 269.277344 438.59375 C 269.277344 435.828125 269.277344 433.0625 269.277344 430.210938 C 267.433594 430.671875 265.59375 431.132812 263.695312 431.609375 C 263.695312 430.226562 263.695312 428.84375 263.695312 427.417969 Z M 263.695312 427.417969 "/>
<path style=" stroke:none;fill-rule:nonzero;fill:rgb(88.235295%,89.411765%,89.019608%);fill-opacity:1;" d="M 351.59375 424.625 C 353.894531 424.625 356.195312 424.625 358.570312 424.625 C 358.570312 425.546875 358.570312 426.46875 358.570312 427.417969 C 356.726562 427.878906 354.886719 428.339844 352.988281 428.816406 C 353.449219 432.503906 353.910156 436.191406 354.382812 439.988281 C 353.460938 439.988281 352.542969 439.988281 351.59375 439.988281 C 351.59375 434.917969 351.59375 429.847656 351.59375 424.625 Z M 351.59375 424.625 "/>
<path style=" stroke:none;fill-rule:nonzero;fill:rgb(85.09804%,85.09804%,85.09804%);fill-opacity:1;" d="M 399.03125 317.070312 C 402.292969 317.472656 405.550781 317.9375 408.796875 318.46875 C 408.796875 320.3125 408.796875 322.15625 408.796875 324.054688 C 406.953125 324.054688 405.113281 324.054688 403.214844 324.054688 C 403.214844 322.671875 403.214844 321.289062 403.214844 319.867188 C 401.375 319.40625 399.53125 318.945312 397.632812 318.46875 C 398.09375 318.007812 398.554688 317.546875 399.03125 317.070312 Z M 399.03125 317.070312 "/>
<path style=" stroke:none;fill-rule:nonzero;fill:rgb(64.705884%,65.882355%,65.490198%);fill-opacity:1;" d="M 306.945312 417.640625 C 308.328125 417.640625 309.707031 417.640625 311.132812 417.640625 C 312.875 426.894531 312.875 426.894531 309.738281 431.609375 C 309.738281 429.304688 309.738281 427 309.738281 424.625 C 308.816406 424.625 307.894531 424.625 306.945312 424.625 C 306.945312 422.320312 306.945312 420.015625 306.945312 417.640625 Z M 306.945312 417.640625 "/>
<path style=" stroke:none;fill-rule:nonzero;fill:rgb(77.64706%,78.039217%,77.64706%);fill-opacity:1;" d="M 378.101562 423.226562 C 380.863281 423.226562 383.625 423.226562 386.472656 423.226562 C 386.472656 425.070312 386.472656 426.914062 386.472656 428.816406 C 382.328125 428.125 382.328125 428.125 378.101562 427.417969 C 378.101562 426.035156 378.101562 424.652344 378.101562 423.226562 Z M 378.101562 423.226562 "/>
<path style=" stroke:none;fill-rule:nonzero;fill:rgb(91.37255%,91.37255%,91.37255%);fill-opacity:1;" d="M 530.179688 338.023438 C 533.402344 338.023438 536.625 338.023438 539.945312 338.023438 C 539.945312 339.40625 539.945312 340.789062 539.945312 342.214844 C 537.183594 342.675781 534.421875 343.136719 531.574219 343.609375 C 531.113281 341.765625 530.652344 339.921875 530.179688 338.023438 Z M 530.179688 338.023438 "/>
<path style=" stroke:none;fill-rule:nonzero;fill:rgb(72.549021%,72.549021%,72.549021%);fill-opacity:1;" d="M 164.632812 324.054688 C 166.015625 324.515625 167.398438 324.976562 168.820312 325.453125 C 168.820312 326.835938 168.820312 328.21875 168.820312 329.644531 C 169.28125 330.566406 169.742188 331.488281 170.214844 332.4375 C 168.375 332.4375 166.53125 332.4375 164.632812 332.4375 C 164.175781 331.515625 163.714844 330.59375 163.238281 329.644531 C 161.859375 330.335938 161.859375 330.335938 160.449219 331.039062 C 163.066406 325.628906 163.066406 325.628906 164.632812 324.054688 Z M 164.632812 324.054688 "/>
<path style=" stroke:none;fill-rule:nonzero;fill:rgb(73.333335%,73.725492%,73.725492%);fill-opacity:1;" d="M 445.070312 437.195312 C 446.453125 437.65625 447.835938 438.117188 449.257812 438.59375 C 449.257812 440.898438 449.257812 443.203125 449.257812 445.578125 C 446.957031 446.039062 444.652344 446.5 442.28125 446.972656 C 442.28125 445.589844 442.28125 444.207031 442.28125 442.785156 C 443.203125 442.785156 444.125 442.785156 445.070312 442.785156 C 445.070312 440.941406 445.070312 439.097656 445.070312 437.195312 Z M 445.070312 437.195312 "/>
<path style=" stroke:none;fill-rule:nonzero;fill:rgb(80.000001%,80.000001%,80.000001%);fill-opacity:1;" d="M 177.191406 333.832031 C 180.175781 336.820312 180.578125 338.210938 181.378906 342.214844 C 179.535156 342.675781 177.695312 343.136719 175.796875 343.609375 C 175.335938 341.765625 174.875 339.921875 174.402344 338.023438 C 175.320312 338.023438 176.242188 338.023438 177.191406 338.023438 C 177.191406 336.640625 177.191406 335.257812 177.191406 333.832031 Z M 177.191406 333.832031 "/>
<path style=" stroke:none;fill-rule:nonzero;fill:rgb(76.078433%,76.862746%,76.47059%);fill-opacity:1;" d="M 393.449219 420.433594 C 394.832031 420.433594 396.210938 420.433594 397.632812 420.433594 C 397.632812 423.199219 397.632812 425.964844 397.632812 428.816406 C 396.253906 428.816406 394.871094 428.816406 393.449219 428.816406 C 393.449219 426.050781 393.449219 423.285156 393.449219 420.433594 Z M 393.449219 420.433594 "/>
<path style=" stroke:none;fill-rule:nonzero;fill:rgb(90.196079%,90.196079%,89.803922%);fill-opacity:1;" d="M 438.097656 332.4375 C 439.015625 332.4375 439.9375 332.4375 440.886719 332.4375 C 440.886719 335.203125 440.886719 337.96875 440.886719 340.816406 C 441.808594 341.277344 442.726562 341.738281 443.675781 342.214844 C 441.835938 342.675781 439.992188 343.136719 438.097656 343.609375 C 438.097656 339.921875 438.097656 336.234375 438.097656 332.4375 Z M 438.097656 332.4375 "/>
<path style=" stroke:none;fill-rule:nonzero;fill:rgb(81.176472%,81.568629%,81.568629%);fill-opacity:1;" d="M 343.222656 438.59375 C 343.683594 438.59375 344.140625 438.59375 344.617188 438.59375 C 344.617188 441.359375 344.617188 444.125 344.617188 446.972656 C 342.773438 446.972656 340.933594 446.972656 339.035156 446.972656 C 339.496094 445.128906 339.957031 443.285156 340.429688 441.386719 C 341.351562 441.386719 342.273438 441.386719 343.222656 441.386719 C 343.222656 440.464844 343.222656 439.542969 343.222656 438.59375 Z M 343.222656 438.59375 "/>
<path style=" stroke:none;fill-rule:nonzero;fill:rgb(66.666669%,67.058825%,67.843139%);fill-opacity:1;" d="M 278.429688 423.140625 C 280.113281 423.183594 280.113281 423.183594 281.832031 423.226562 C 279.542969 426.050781 277.214844 428.84375 274.855469 431.609375 C 274.394531 431.609375 273.933594 431.609375 273.460938 431.609375 C 273.402344 429.28125 273.40625 426.953125 273.460938 424.625 C 274.855469 423.226562 274.855469 423.226562 278.429688 423.140625 Z M 278.429688 423.140625 "/>
<path style=" stroke:none;fill-rule:nonzero;fill:rgb(64.313728%,64.705884%,64.313728%);fill-opacity:1;" d="M 403.214844 419.039062 C 404.136719 419.5 405.058594 419.960938 406.007812 420.433594 C 406.007812 421.355469 406.007812 422.277344 406.007812 423.226562 C 406.925781 423.6875 407.847656 424.148438 408.796875 424.625 C 408.796875 426.007812 408.796875 427.390625 408.796875 428.816406 C 407.875 428.816406 406.953125 428.816406 406.007812 428.816406 C 406.007812 427.894531 406.007812 426.972656 406.007812 426.023438 C 404.625 426.023438 403.242188 426.023438 401.820312 426.023438 C 402.28125 423.71875 402.742188 421.414062 403.214844 419.039062 Z M 403.214844 419.039062 "/>
<path style=" stroke:none;fill-rule:nonzero;fill:rgb(88.627452%,88.627452%,88.627452%);fill-opacity:1;" d="M 348.800781 339.421875 C 348.800781 340.34375 348.800781 341.265625 348.800781 342.214844 C 345.578125 342.214844 342.355469 342.214844 339.035156 342.214844 C 338.574219 341.292969 338.113281 340.371094 337.640625 339.421875 C 342.226562 338.304688 344.210938 337.890625 348.800781 339.421875 Z M 348.800781 339.421875 "/>
<path style=" stroke:none;fill-rule:nonzero;fill:rgb(95.294118%,95.294118%,95.294118%);fill-opacity:1;" d="M 163.238281 328.246094 C 164.160156 330.089844 165.082031 331.933594 166.03125 333.832031 C 163.726562 334.753906 161.425781 335.675781 159.054688 336.628906 C 159.054688 334.785156 159.054688 332.941406 159.054688 331.039062 C 160.433594 330.117188 161.816406 329.195312 163.238281 328.246094 Z M 163.238281 328.246094 "/>
<path style=" stroke:none;fill-rule:nonzero;fill:rgb(60.000002%,60.000002%,60.000002%);fill-opacity:1;" d="M 538.550781 315.675781 C 537.167969 316.597656 535.789062 317.519531 534.367188 318.46875 C 535.285156 319.390625 536.207031 320.3125 537.15625 321.261719 C 535.773438 321.261719 534.394531 321.261719 532.96875 321.261719 C 532.507812 322.644531 532.050781 324.027344 531.574219 325.453125 C 531.574219 323.148438 531.574219 320.84375 531.574219 318.46875 C 530.652344 318.007812 529.734375 317.546875 528.785156 317.070312 C 532.21875 315.351562 534.753906 315.574219 538.550781 315.675781 Z M 538.550781 315.675781 "/>
</g>
</svg>
